name C:\Users\tom_v\My Drive\PostDoc\MusculoskeletalSpecialization\ResultsSprinting\Case_4\motion.mot
datacolumns 32
datarows 17
range 0.42275450 0.51294213
endheader 
time	pelvis_tilt	pelvis_list	pelvis_rotation	pelvis_tx	pelvis_ty	pelvis_tz	hip_flexion_r	hip_adduction_r	hip_rotation_r	knee_angle_r	ankle_angle_r	subtalar_angle_r	mtp_angle_r	hip_flexion_l	hip_adduction_l	hip_rotation_l	knee_angle_l	ankle_angle_l	subtalar_angle_l	mtp_angle_l	lumbar_extension	lumbar_bending	lumbar_rotation	arm_flex_r	arm_add_r	arm_rot_r	elbow_flex_r	arm_flex_l	arm_add_l	arm_rot_l	elbow_flex_l	
          0.42275450	        -12.72415633	          0.10924062	         -1.04918437	          1.40131914	          0.93719407	         -0.00287828	         32.47985753	         -0.92346186	         -3.84278867	        -58.82029020	         20.58506244	          4.62977134	          2.97507358	         29.12192131	          4.50461939	          4.95249178	        -39.80399480	         22.05016062	         -3.22571011	          9.59407579	        -12.40880644	         -1.55074279	         -0.12390003	          5.93222189	         -8.43162561	          9.36684342	         69.61018353	         26.35186249	         -3.66573006	         13.56383309	         14.54960418	
          0.42839123	        -12.75373585	          0.01760127	         -1.07715883	          1.41959831	          0.93840062	         -0.00298371	         33.78017213	         -0.71170181	         -3.83099442	        -58.39285991	         21.24600123	          4.38750700	          2.76154510	         27.64576072	          4.33017473	          4.88993893	        -39.18359176	         21.89028496	         -2.96472072	         10.64765450	        -12.45124664	         -1.34680732	         -0.28208640	          4.40469873	         -9.00782440	          8.90998212	         73.84254720	         27.66556959	         -3.02936071	         13.52273360	         11.35448990	
          0.43402796	        -12.78536569	         -0.07724795	         -1.10220997	          1.43795239	          0.93970909	         -0.00307773	         35.02925424	         -0.48930451	         -3.80196646	        -57.84646748	         21.79286875	          4.15970926	          2.56452525	         26.14499844	          4.13494462	          4.79354829	        -38.49927302	         21.56048357	         -2.69365050	         11.75584462	        -12.48765168	         -1.13026090	         -0.44015144	          2.92019331	         -9.54268686	          8.42661988	         77.90109239	         28.79643602	         -2.46819258	         13.38739421	          8.64361129	
          0.43966468	        -12.81857937	         -0.17452537	         -1.12398514	          1.45638513	          0.94111034	         -0.00316223	         36.22393761	         -0.25872163	         -3.75637458	        -57.18480468	         22.23739276	          3.94706863	          2.38214052	         24.63089610	          3.92094038	          4.66047844	        -37.76950528	         21.05463483	         -2.40977237	         12.91728302	        -12.51743726	         -0.90200605	         -0.59727002	          1.48320780	        -10.03507962	          7.91992508	         81.77098248	         29.75202809	         -1.98211835	         13.18125190	          6.39467312	
          0.44530141	        -12.85290871	         -0.27307690	         -1.14235953	          1.47489938	          0.94259186	         -0.00323914	         37.36158268	         -0.02296198	         -3.69481809	        -56.41217098	         22.59184288	          3.74957273	          2.21276302	         23.11244989	          3.68954920	          4.48610999	        -37.00949767	         20.37392039	         -2.10661952	         14.12712309	        -12.54023033	         -0.66340113	         -0.75253446	          0.09725374	        -10.48478756	          7.39306118	         85.44129657	         30.54312252	         -1.56700205	         12.92645707	          4.57330966	
          0.45093814	        -12.88797982	         -0.37200261	         -1.15720847	          1.49349508	          0.94414027	         -0.00331016	         38.43953287	          0.21545571	         -3.61752837	        -55.53145746	         22.86872717	          3.56578047	          2.05506488	         21.59985119	          3.44317486	          4.26746735	        -36.23709763	         19.52492741	         -1.78326688	         15.37238133	        -12.55638514	         -0.41579869	         -0.90523369	         -1.23425726	        -10.89222650	          6.84929897	         88.90370440	         31.18289987	         -1.21620988	         12.64236440	          3.13790319	
          0.45657487	        -12.92345036	         -0.47082132	         -1.16871269	          1.51217049	          0.94574082	         -0.00337614	         39.45572836	          0.45500645	         -3.52390474	        -54.54575763	         23.07960736	          3.39393901	          1.90810416	         20.10321343	          3.18522681	          4.00618854	        -35.46926856	         18.50628609	         -1.44482034	         16.64703691	        -12.56664468	         -0.16034561	         -1.05469364	         -2.50795901	        -11.25834475	          6.29210893	         92.15181284	         31.68579011	         -0.92183352	         12.34505333	          2.04298803	
          0.46221159	        -12.95884075	         -0.56878392	         -1.17758589	          1.53092727	          0.94737412	         -0.00343807	         40.40868207	          0.69385392	         -3.41387109	        -53.45944885	         23.23431041	          3.23229230	          1.77132940	         18.62738574	          2.91962196	          3.70708854	        -34.71518041	         17.32098089	         -1.09732261	         17.94556124	        -12.57085877	          0.10162852	         -1.20017696	         -3.72132911	        -11.58479906	          5.72529297	         95.18076491	         32.06590110	         -0.67537857	         12.04762437	          1.24131509	
          0.46784832	        -12.99359700	         -0.66501397	         -1.18484450	          1.54976911	          0.94901720	         -0.00349611	         41.29749508	          0.93013859	         -3.28779096	        -52.27792969	         23.34027339	          3.07924755	          1.64423513	         17.17333157	          2.65006329	          3.37640555	        -33.97805945	         15.97661944	         -0.74574692	         19.26059303	        -12.56822912	          0.36851261	         -1.34113966	         -4.87218773	        -11.87379837	          5.15325108	         97.98661866	         32.33707958	         -0.46851603	         11.76093232	          0.68508649	
          0.47348505	        -13.02715571	         -0.75877225	         -1.19143283	          1.56870072	          0.95064497	         -0.00354866	         42.12167733	          1.16233570	         -3.14647935	        -51.00732465	         23.40291470	          2.93343378	          1.52636048	         15.73874672	          2.37936138	          3.02079352	        -33.25590236	         14.48519558	         -0.39209609	         20.58190059	        -12.55758104	          0.63839034	         -1.47760066	         -5.95834616	        -12.12772908	          4.58105502	        100.56575614	         32.51293606	         -0.29370015	         11.49425106	          0.32696149	
          0.47912177	        -13.05893354	         -0.84943325	         -1.19812946	          1.58772724	          0.95223114	         -0.00359308	         42.88034338	          1.38955705	         -2.98945428	        -49.65271774	         23.42648937	          2.79347780	          1.41723975	         14.32013820	          2.10985640	          2.64767569	        -32.54543801	         12.86173093	         -0.03579595	         21.89668346	        -12.53744402	          0.90918993	         -1.60991282	         -6.97758222	        -12.34921956	          4.01434192	        102.91472555	         32.60659113	         -0.14419007	         11.25495760	          0.12142835	
          0.48475850	        -13.08842280	         -0.93568269	         -1.20520773	          1.60684626	          0.95374773	         -0.00362718	         43.57319439	          1.60970823	         -2.81649274	        -48.21830387	         23.41379196	          2.65806954	          1.31635683	         12.92143302	          1.84462443	          2.26607792	        -31.85582643	         11.11956668	          0.32707455	         23.19135382	        -12.50746477	          1.17774167	         -1.73809566	         -7.92728127	        -12.54132253	          3.45856022	        105.03183259	         32.63270393	         -0.01358102	         11.04845244	          0.02531188	
          0.49039523	        -13.11551126	         -1.01654480	         -1.21238480	          1.62604038	          0.95516662	         -0.00364944	         44.20195181	          1.82004237	         -2.62959093	        -46.70833538	         23.36868487	          2.52596179	          1.22291948	         11.55671724	          1.58528440	          1.88238547	        -31.21037784	          9.27120474	          0.70422197	         24.44698251	        -12.47023194	          1.44106826	         -1.86136710	         -8.80356887	        -12.70760711	          2.91880880	        106.91846640	         32.60834194	          0.10411453	         10.87713137	          0.00019857	
          0.49603195	        -13.14019010	         -1.09088898	         -1.21934122	          1.64528639	          0.95646033	         -0.00365976	         44.76971192	          2.01769786	         -2.43046470	        -45.12928335	         23.29466648	          2.39584775	          1.13653944	         10.24342464	          1.33382244	          1.50470234	        -30.63698859	          7.33755482	          1.10242798	         25.62606494	        -12.42948612	          1.69637644	         -1.97844486	         -9.60200786	        -12.85211099	          2.40065426	        108.57719922	         32.54955930	          0.21397215	         10.73923344	          0.01537267	
          0.50166868	        -13.16239896	         -1.15505073	         -1.22485179	          1.66456110	          0.95760698	         -0.00365944	         45.27420196	          2.19799909	         -2.21863392	        -43.47921648	         23.19357276	          2.26640014	          1.05696709	          9.00425784	          1.09450526	          1.14261527	        -30.17567361	          5.43467460	          1.55574045	         26.52450363	        -12.38890291	          1.93790993	         -2.08798900	        -10.31895586	        -12.97773026	          1.90889532	        110.00933669	         32.47036291	          0.32005357	         10.63064944	          0.04799539	
          0.50730541	        -13.18213695	         -1.20677509	         -1.22684946	          1.68384930	          0.95859636	         -0.00364865	         45.70486765	          2.35809287	         -1.99317082	        -41.74305545	         23.06604864	          2.13650561	          0.98364703	          7.85979199	          0.86762045	          0.79910795	        -29.85747852	          3.58410801	          2.07187049	         27.09337580	        -12.35095157	          2.16127631	         -2.18884736	        -10.95141666	        -13.08623265	          1.44849565	        111.21196706	         32.37999294	          0.42507925	         10.54554193	          0.08423264	
          0.51294213	        -13.19947400	         -1.24545118	         -1.22302511	          1.70314315	          0.95942397	         -0.00362614	         46.04861484	          2.49629823	         -1.75443075	        -39.90644444	         22.91237688	          2.00513000	          0.91595155	          6.82185874	          0.65116087	          0.47485499	        -29.69230653	          1.74842423	          2.63961016	         27.38118678	        -12.31711925	          2.36364278	         -2.27996307	        -11.49750807	        -13.17900371	          1.02461678	        112.18095609	         32.28395143	          0.53077074	         10.47790627	          0.11647062	
